<svg aria-hidden="true" style="position: absolute; width: 0; height: 0; overflow: hidden;" version="1.1" xmlns="http://www.w3.org/2000/svg" xmlns:xlink="http://www.w3.org/1999/xlink">
<defs>
<symbol id="icon-before" viewBox="0 0 32 32">
<path d="M7.381 29.181c0.216 0.112 0.458 0.164 0.701 0.149s0.477-0.096 0.677-0.234l17.333-12c0.177-0.123 0.322-0.287 0.422-0.477s0.152-0.403 0.152-0.619-0.052-0.428-0.152-0.619c-0.1-0.191-0.245-0.355-0.422-0.477l-17.333-12c-0.2-0.138-0.434-0.219-0.677-0.234s-0.485 0.037-0.7 0.15c-0.215 0.113-0.396 0.283-0.522 0.491s-0.193 0.447-0.193 0.69v24c-0 0.243 0.067 0.482 0.193 0.69s0.307 0.378 0.522 0.491z"></path>
</symbol>
<symbol id="icon-file" viewBox="0 0 24 32">
<path d="M14.088 8.5v-8.5h-12.579c-0.836 0-1.509 0.669-1.509 1.5v29c0 0.831 0.673 1.5 1.509 1.5h21.132c0.836 0 1.509-0.669 1.509-1.5v-20.5h-8.553c-0.83 0-1.509-0.675-1.509-1.5zM18.896 21.71l-6.064 5.981c-0.418 0.413-1.094 0.413-1.512 0l-6.064-5.981c-0.638-0.629-0.191-1.71 0.708-1.71h4.099v-5c0-0.553 0.45-1 1.006-1h2.013c0.556 0 1.006 0.447 1.006 1v5h4.099c0.898 0 1.346 1.081 0.709 1.71zM23.711 6.563l-6.157-6.125c-0.283-0.281-0.667-0.438-1.069-0.438h-0.384v8h8.050v-0.381c0-0.394-0.157-0.775-0.44-1.056z"></path>
</symbol>
<symbol id="icon-close-line" viewBox="0 0 32 32">
<path d="M17.253 16l7.369-7.369c0.146-0.17 0.222-0.389 0.213-0.613s-0.102-0.436-0.26-0.594-0.37-0.251-0.594-0.26c-0.224-0.009-0.442 0.067-0.613 0.213l-7.369 7.369-7.369-7.378c-0.167-0.167-0.394-0.261-0.631-0.261s-0.464 0.094-0.631 0.261c-0.167 0.167-0.261 0.394-0.261 0.631s0.094 0.464 0.261 0.631l7.378 7.369-7.378 7.369c-0.093 0.080-0.169 0.178-0.222 0.288s-0.083 0.23-0.088 0.353c-0.005 0.122 0.016 0.244 0.061 0.358s0.112 0.218 0.199 0.304c0.087 0.087 0.19 0.154 0.304 0.199s0.236 0.065 0.359 0.061c0.122-0.005 0.243-0.035 0.353-0.088s0.208-0.129 0.288-0.222l7.378-7.369 7.369 7.369c0.17 0.146 0.389 0.222 0.613 0.213s0.436-0.101 0.594-0.26 0.251-0.37 0.26-0.594c0.009-0.224-0.068-0.442-0.213-0.613l-7.369-7.369z"></path>
</symbol>
</defs>
</svg>
